<svg width="173" height="40" viewBox="0 0 173 40" fill="none" xmlns="http://www.w3.org/2000/svg">
<path fill-rule="evenodd" clip-rule="evenodd" d="M36.7341 32.4054L24.0252 19.5245L36.6223 6.75684H30.2929L19.9184 17.2717H7.65862L3.38965 21.753L3.42392 21.7772H19.9184L30.4047 32.4054H36.7341Z" fill="url(#paint0_linear_702_6650)"/>
<path d="M63.0804 26L58.5871 19.2701L62.8008 12.8198H59.0863L56.8098 17.0135L54.5332 12.8198H50.4793L54.693 19.37L50.2197 26H54.1138L56.5102 21.6665L58.9865 26H63.0804ZM72.3481 26H76.1424L72.7875 20.8278C74.465 20.2287 75.3636 18.9306 75.3636 17.0135C75.3636 14.2976 73.5663 12.8198 70.3911 12.8198H67.4755H64.1005V26H67.4755V21.1872H69.5324L72.3481 26ZM67.4755 15.4159H69.812C71.2698 15.4159 71.9088 15.9152 71.9088 17.0734C71.9088 18.2516 71.2698 18.7509 69.812 18.7509H67.4755V15.4159ZM83.3207 12.8198H80.7047H77.2698V26H80.7047V21.4269H83.3207C86.5958 21.4269 88.4131 19.8892 88.4131 17.1932C88.4131 14.3575 86.5958 12.8198 83.3207 12.8198ZM82.7815 18.9106H80.7047V15.4159H82.7815C84.2993 15.4159 84.9583 15.995 84.9583 17.1533C84.9583 18.3315 84.2993 18.9106 82.7815 18.9106ZM93.4449 23.344V12.8198H90.01V26H91.6875H100.055V23.344H93.4449ZM114.538 12.8198V18.032H109.506V12.8198H106.071V26H109.506V20.688H114.538V26H117.973V12.8198H114.538ZM126.205 12.6201C122.191 12.6201 119.734 15.1563 119.734 19.4099C119.734 23.6635 122.191 26.1997 126.205 26.1997C130.219 26.1997 132.655 23.6635 132.655 19.4099C132.655 15.1563 130.219 12.6201 126.205 12.6201ZM126.205 15.316C128.102 15.316 129.14 16.7139 129.14 19.4099C129.14 22.1058 128.102 23.5038 126.205 23.5038C124.287 23.5038 123.249 22.1058 123.249 19.4099C123.249 16.7139 124.287 15.316 126.205 15.316ZM140.329 12.6201C136.315 12.6201 133.859 15.1563 133.859 19.4099C133.859 23.6635 136.315 26.1997 140.329 26.1997C144.343 26.1997 146.78 23.6635 146.78 19.4099C146.78 15.1563 144.343 12.6201 140.329 12.6201ZM140.329 15.316C142.227 15.316 143.265 16.7139 143.265 19.4099C143.265 22.1058 142.227 23.5038 140.329 23.5038C138.412 23.5038 137.374 22.1058 137.374 19.4099C137.374 16.7139 138.412 15.316 140.329 15.316ZM156.851 26H160.745L156.032 18.1718L160.505 12.8198H156.691L151.978 18.671V12.8198H148.543V26H151.978V22.2856L153.576 20.3485L156.851 26ZM166.553 12.6201C162.938 12.6201 160.881 14.4374 160.881 16.9137C160.881 19.4898 162.898 20.4084 166.014 21.0275C167.811 21.367 168.57 21.7065 168.57 22.3255C168.57 23.0844 167.851 23.5237 166.373 23.5237C164.616 23.5237 163.338 23.0644 162.259 21.5667L160.502 23.9631C161.8 25.4009 163.437 26.1997 166.553 26.1997C169.728 26.1997 172.124 24.7219 172.124 22.1458C172.124 19.8293 170.706 18.651 167.052 17.992C165.175 17.6525 164.456 17.2931 164.456 16.6141C164.456 15.8552 165.195 15.2961 166.613 15.2961C168.29 15.2961 169.408 15.9152 170.287 17.2332L172.224 14.9965C170.706 13.2991 169.029 12.6201 166.553 12.6201Z" fill="#EDEDEF"/>
<defs>
<linearGradient id="paint0_linear_702_6650" x1="20.0619" y1="6.75684" x2="20.0619" y2="32.4054" gradientUnits="userSpaceOnUse">
<stop stop-color="#9D2DFF"/>
<stop offset="1" stop-color="#BF09FF"/>
</linearGradient>
</defs>
</svg>